<svg width="80" height="80" viewBox="0 0 80 80" fill="none" xmlns="http://www.w3.org/2000/svg">
<path d="M36.9177 39.8487L37.1327 39.635C37.2522 39.5199 37.3476 39.3821 37.4134 39.2297C37.4791 39.0772 37.5138 38.9133 37.5155 38.7473C37.5171 38.5813 37.4857 38.4167 37.4231 38.263C37.3605 38.1093 37.2679 37.9696 37.1507 37.8521C37.0335 37.7346 36.894 37.6415 36.7405 37.5785C36.587 37.5154 36.4224 37.4835 36.2565 37.4847C36.0905 37.4859 35.9264 37.5202 35.7738 37.5855C35.6212 37.6508 35.4832 37.7458 35.3677 37.865L35.1514 38.08C34.4375 38.763 33.4876 39.1442 32.4996 39.1442C31.5116 39.1442 30.5616 38.763 29.8477 38.08L29.6327 37.8662C29.5172 37.747 29.3792 37.652 29.2266 37.5867C29.074 37.5214 28.9099 37.4872 28.7439 37.486C28.578 37.4848 28.4134 37.5167 28.2599 37.5797C28.1064 37.6428 27.9669 37.7358 27.8497 37.8533C27.7325 37.9709 27.6399 38.1105 27.5773 38.2642C27.5147 38.418 27.4833 38.5826 27.4849 38.7486C27.4866 38.9145 27.5213 39.0785 27.587 39.2309C27.6527 39.3833 27.7482 39.5211 27.8677 39.6362L28.0814 39.8487C29.2534 41.0201 30.8426 41.678 32.4996 41.678C34.1565 41.678 35.7457 41.0201 36.9177 39.8487Z" fill="#DD5900"/>
<path d="M21.25 25H30C30.3315 25 30.6495 24.8683 30.8839 24.6339C31.1183 24.3995 31.25 24.0815 31.25 23.75V22.5H33.75V23.75C33.75 24.0815 33.8817 24.3995 34.1161 24.6339C34.3505 24.8683 34.6685 25 35 25H43.75C44.0815 25 44.3995 24.8683 44.6339 24.6339C44.8683 24.3995 45 24.0815 45 23.75C45 23.4185 44.8683 23.1005 44.6339 22.8661C44.3995 22.6317 44.0815 22.5 43.75 22.5H36.25V21.25C36.25 20.9185 36.1183 20.6005 35.8839 20.3661C35.6495 20.1317 35.3315 20 35 20H30C29.6685 20 29.3505 20.1317 29.1161 20.3661C28.8817 20.6005 28.75 20.9185 28.75 21.25V22.5H21.25C20.9185 22.5 20.6005 22.6317 20.3661 22.8661C20.1317 23.1005 20 23.4185 20 23.75C20 24.0815 20.1317 24.3995 20.3661 24.6339C20.6005 24.8683 20.9185 25 21.25 25Z" fill="#DD5900"/>
<path d="M46.25 50H38.75V45.9875C40.8379 44.9164 42.6179 43.3302 43.9216 41.3791C45.2253 39.4279 46.0095 37.1764 46.2 34.8375C47.2819 34.57 48.2435 33.9487 48.932 33.0723C49.6204 32.1958 49.9963 31.1145 50 30C50.9946 30 51.9484 29.6049 52.6516 28.9017C53.3549 28.1984 53.75 27.2446 53.75 26.25C53.75 25.2554 53.3549 24.3016 52.6516 23.5983C51.9484 22.8951 50.9946 22.5 50 22.5C50.011 18.721 48.7926 15.0408 46.5288 12.0149C44.265 8.98893 41.0784 6.78128 37.45 5.725C37.3238 4.83251 36.8804 4.01534 36.2009 3.42309C35.5214 2.83084 34.6514 2.50314 33.75 2.5H31.25C30.3486 2.50314 29.4786 2.83084 28.7991 3.42309C28.1196 4.01534 27.6762 4.83251 27.55 5.725C23.9216 6.78128 20.735 8.98893 18.4712 12.0149C16.2074 15.0408 14.989 18.721 15 22.5C14.0054 22.5 13.0516 22.8951 12.3483 23.5983C11.6451 24.3016 11.25 25.2554 11.25 26.25C11.25 27.2446 11.6451 28.1984 12.3483 28.9017C13.0516 29.6049 14.0054 30 15 30C15.0036 31.1145 15.3796 32.1958 16.068 33.0723C16.7565 33.9487 17.7181 34.57 18.8 34.8375C18.9905 37.1764 19.7747 39.4279 21.0784 41.3791C22.3821 43.3302 24.1621 44.9164 26.25 45.9875V50H18.75C15.7677 50.0046 12.9089 51.1914 10.8002 53.3002C8.69138 55.4089 7.50463 58.2677 7.5 61.25V76.25C7.5 76.5815 7.6317 76.8995 7.86612 77.1339C8.10054 77.3683 8.41848 77.5 8.75 77.5H56.25C56.5815 77.5 56.8995 77.3683 57.1339 77.1339C57.3683 76.8995 57.5 76.5815 57.5 76.25V61.25C57.4954 58.2677 56.3086 55.4089 54.1998 53.3002C52.0911 51.1914 49.2323 50.0046 46.25 50ZM17.5 75H10V61.25C10.0025 59.1477 10.7618 57.1166 12.139 55.5282C13.5162 53.9398 15.4193 52.9003 17.5 52.6V75ZM46.25 32.1625V30H47.5C47.5016 30.4388 47.3867 30.8702 47.1671 31.2501C46.9475 31.63 46.631 31.9449 46.25 32.1625ZM18.75 32.1625C18.369 31.9449 18.0525 31.63 17.8329 31.2501C17.6133 30.8702 17.4984 30.4388 17.5 30H18.75V32.1625ZM15 27.5C14.6685 27.5 14.3505 27.3683 14.1161 27.1339C13.8817 26.8995 13.75 26.5815 13.75 26.25C13.75 25.9185 13.8817 25.6005 14.1161 25.3661C14.3505 25.1317 14.6685 25 15 25C15 25.3315 15.1317 25.6495 15.3661 25.8839C15.6005 26.1183 15.9185 26.25 16.25 26.25C16.5815 26.25 16.8995 26.1183 17.1339 25.8839C17.3683 25.6495 17.5 25.3315 17.5 25V22.5C17.4934 20.1172 18.0574 17.7674 19.1447 15.6471C20.232 13.5268 21.8111 11.6977 23.75 10.3125V13.75C23.75 14.0815 23.8817 14.3995 24.1161 14.6339C24.3505 14.8683 24.6685 15 25 15C25.3315 15 25.6495 14.8683 25.8839 14.6339C26.1183 14.3995 26.25 14.0815 26.25 13.75V8.8625C26.6625 8.675 27.075 8.5125 27.5 8.3625V16.25C27.5 16.5815 27.6317 16.8995 27.8661 17.1339C28.1005 17.3683 28.4185 17.5 28.75 17.5C29.0815 17.5 29.3995 17.3683 29.6339 17.1339C29.8683 16.8995 30 16.5815 30 16.25V6.25C30 5.91848 30.1317 5.60054 30.3661 5.36612C30.6005 5.1317 30.9185 5 31.25 5H33.75C34.0815 5 34.3995 5.1317 34.6339 5.36612C34.8683 5.60054 35 5.91848 35 6.25V16.25C35 16.5815 35.1317 16.8995 35.3661 17.1339C35.6005 17.3683 35.9185 17.5 36.25 17.5C36.5815 17.5 36.8995 17.3683 37.1339 17.1339C37.3683 16.8995 37.5 16.5815 37.5 16.25V8.3625C37.925 8.5125 38.3375 8.675 38.75 8.8625V13.75C38.75 14.0815 38.8817 14.3995 39.1161 14.6339C39.3505 14.8683 39.6685 15 40 15C40.3315 15 40.6495 14.8683 40.8839 14.6339C41.1183 14.3995 41.25 14.0815 41.25 13.75V10.3125C43.1889 11.6977 44.768 13.5268 45.8553 15.6471C46.9426 17.7674 47.5066 20.1172 47.5 22.5V25C47.5 25.3315 47.6317 25.6495 47.8661 25.8839C48.1005 26.1183 48.4185 26.25 48.75 26.25C49.0815 26.25 49.3995 26.1183 49.6339 25.8839C49.8683 25.6495 50 25.3315 50 25C50.3315 25 50.6495 25.1317 50.8839 25.3661C51.1183 25.6005 51.25 25.9185 51.25 26.25C51.25 26.5815 51.1183 26.8995 50.8839 27.1339C50.6495 27.3683 50.3315 27.5 50 27.5H15ZM21.25 33.75V30H26.25C25.9185 30 25.6005 30.1317 25.3661 30.3661C25.1317 30.6005 25 30.9185 25 31.25C25 31.5815 25.1317 31.8995 25.3661 32.1339C25.6005 32.3683 25.9185 32.5 26.25 32.5H27.5C27.8315 32.5 28.1495 32.3683 28.3839 32.1339C28.6183 31.8995 28.75 31.5815 28.75 31.25C28.75 30.9185 28.6183 30.6005 28.3839 30.3661C28.1495 30.1317 27.8315 30 27.5 30H37.5C37.1685 30 36.8505 30.1317 36.6161 30.3661C36.3817 30.6005 36.25 30.9185 36.25 31.25C36.25 31.5815 36.3817 31.8995 36.6161 32.1339C36.8505 32.3683 37.1685 32.5 37.5 32.5H38.75C39.0815 32.5 39.3995 32.3683 39.6339 32.1339C39.8683 31.8995 40 31.5815 40 31.25C40 30.9185 39.8683 30.6005 39.6339 30.3661C39.3995 30.1317 39.0815 30 38.75 30H43.75V33.75C43.75 36.7337 42.5647 39.5952 40.4549 41.7049C38.3452 43.8147 35.4837 45 32.5 45C29.5163 45 26.6548 43.8147 24.545 41.7049C22.4353 39.5952 21.25 36.7337 21.25 33.75ZM36.25 46.9625V51.25C36.25 52.2446 35.8549 53.1984 35.1517 53.9016C34.4484 54.6049 33.4946 55 32.5 55C31.5054 55 30.5516 54.6049 29.8483 53.9016C29.1451 53.1984 28.75 52.2446 28.75 51.25V46.9625C31.1986 47.6792 33.8014 47.6792 36.25 46.9625ZM25 52.5H26.375C26.6619 53.9129 27.4284 55.1831 28.5447 56.0955C29.6609 57.0079 31.0583 57.5063 32.5 57.5063C33.9417 57.5063 35.3391 57.0079 36.4553 56.0955C37.5716 55.1831 38.3381 53.9129 38.625 52.5H40V62.5H25V52.5ZM40 75H25V70H40V75ZM45 75H42.5V68.75C42.5 68.4185 42.3683 68.1005 42.1339 67.8661C41.8995 67.6317 41.5815 67.5 41.25 67.5H23.75C23.4185 67.5 23.1005 67.6317 22.8661 67.8661C22.6317 68.1005 22.5 68.4185 22.5 68.75V75H20V52.5H22.5V63.75C22.5 64.0815 22.6317 64.3995 22.8661 64.6339C23.1005 64.8683 23.4185 65 23.75 65H41.25C41.5815 65 41.8995 64.8683 42.1339 64.6339C42.3683 64.3995 42.5 64.0815 42.5 63.75V52.5H45V75ZM55 75H47.5V52.6C49.5807 52.9003 51.4838 53.9398 52.861 55.5282C54.2382 57.1166 54.9975 59.1477 55 61.25V75Z" fill="#DD5900"/>
<path d="M74.8375 47.3875L67.8625 29.4625C67.6393 28.8846 67.2463 28.3879 66.7354 28.0376C66.2245 27.6873 65.6195 27.4998 65 27.4998C64.3806 27.4998 63.7756 27.6873 63.2647 28.0376C62.7537 28.3879 62.3608 28.8846 62.1375 29.4625L55.1625 47.3875C54.9411 47.9554 54.8614 48.5687 54.9303 49.1743C54.9993 49.78 55.2149 50.3597 55.5584 50.8632C55.9019 51.3668 56.3629 51.779 56.9017 52.0642C57.4404 52.3494 58.0405 52.499 58.65 52.5H63.75V57.5C62.7564 57.503 61.8043 57.899 61.1017 58.6016C60.399 59.3042 60.003 60.2563 60 61.25V73.75C60.003 74.7436 60.399 75.6957 61.1017 76.3984C61.8043 77.101 62.7564 77.497 63.75 77.5H66.25C67.2437 77.497 68.1958 77.101 68.8984 76.3984C69.601 75.6957 69.9971 74.7436 70 73.75V61.25C69.9971 60.2563 69.601 59.3042 68.8984 58.6016C68.1958 57.899 67.2437 57.503 66.25 57.5V52.5H71.35C71.9596 52.499 72.5597 52.3494 73.0984 52.0642C73.6371 51.779 74.0982 51.3668 74.4417 50.8632C74.7852 50.3597 75.0008 49.78 75.0697 49.1743C75.1387 48.5687 75.059 47.9554 74.8375 47.3875ZM67.5 61.25V73.75C67.5 74.0815 67.3683 74.3994 67.1339 74.6339C66.8995 74.8683 66.5816 75 66.25 75H63.75C63.4185 75 63.1006 74.8683 62.8662 74.6339C62.6317 74.3994 62.5 74.0815 62.5 73.75V61.25C62.5 60.9185 62.6317 60.6005 62.8662 60.3661C63.1006 60.1317 63.4185 60 63.75 60H66.25C66.5816 60 66.8995 60.1317 67.1339 60.3661C67.3683 60.6005 67.5 60.9185 67.5 61.25ZM72.375 49.45C72.2631 49.6194 72.1108 49.7583 71.9319 49.8543C71.753 49.9503 71.5531 50.0003 71.35 50H66.25V43.75C66.25 43.4185 66.1183 43.1005 65.8839 42.8661C65.6495 42.6317 65.3316 42.5 65 42.5C64.6685 42.5 64.3506 42.6317 64.1162 42.8661C63.8817 43.1005 63.75 43.4185 63.75 43.75V50H58.65C58.448 49.9976 58.2495 49.9467 58.0713 49.8513C57.8932 49.756 57.7406 49.6192 57.6266 49.4524C57.5125 49.2856 57.4403 49.0938 57.4161 48.8932C57.3919 48.6926 57.4164 48.4891 57.4875 48.3L64.4625 30.3625C64.5059 30.2555 64.5802 30.1639 64.676 30.0994C64.7718 30.0349 64.8846 30.0004 65 30.0004C65.1155 30.0004 65.2283 30.0349 65.3241 30.0994C65.4198 30.1639 65.4942 30.2555 65.5375 30.3625L72.5125 48.3C72.5869 48.488 72.6133 48.6916 72.5893 48.8924C72.5653 49.0932 72.4917 49.2848 72.375 49.45Z" fill="#DD5900"/>
<path d="M76.25 2.5H46.25C45.9185 2.5 45.6005 2.6317 45.3661 2.86612C45.1317 3.10054 45 3.41848 45 3.75V7.5125C45 7.84402 45.1317 8.16196 45.3661 8.39638C45.6005 8.6308 45.9185 8.7625 46.25 8.7625C46.5815 8.7625 46.8995 8.6308 47.1339 8.39638C47.3683 8.16196 47.5 7.84402 47.5 7.5125V5H60V12.5H51.0875C50.756 12.5 50.438 12.6317 50.2036 12.8661C49.9692 13.1005 49.8375 13.4185 49.8375 13.75C49.8375 14.0815 49.9692 14.3995 50.2036 14.6339C50.438 14.8683 50.756 15 51.0875 15H52.5V19.75C52.5 20.0815 52.6317 20.3995 52.8661 20.6339C53.1005 20.8683 53.4185 21 53.75 21C54.0815 21 54.3995 20.8683 54.6339 20.6339C54.8683 20.3995 55 20.0815 55 19.75V15H67.5V22.5H56.2C55.8685 22.5 55.5505 22.6317 55.3161 22.8661C55.0817 23.1005 54.95 23.4185 54.95 23.75C54.95 24.0815 55.0817 24.3995 55.3161 24.6339C55.5505 24.8683 55.8685 25 56.2 25H56.25V32.5H52.5C52.1685 32.5 51.8505 32.6317 51.6161 32.8661C51.3817 33.1005 51.25 33.4185 51.25 33.75V42.5H46.25C45.9185 42.5 45.6005 42.6317 45.3661 42.8661C45.1317 43.1005 45 43.4185 45 43.75C45 44.0815 45.1317 44.3995 45.3661 44.6339C45.6005 44.8683 45.9185 45 46.25 45H52.5C52.8315 45 53.1495 44.8683 53.3839 44.6339C53.6183 44.3995 53.75 44.0815 53.75 43.75V35H57.5C57.8315 35 58.1495 34.8683 58.3839 34.6339C58.6183 34.3995 58.75 34.0815 58.75 33.75V25H75V32.5H72.5C72.1685 32.5 71.8505 32.6317 71.6161 32.8661C71.3817 33.1005 71.25 33.4185 71.25 33.75C71.25 34.0815 71.3817 34.3995 71.6161 34.6339C71.8505 34.8683 72.1685 35 72.5 35H75V43.75C75 44.0815 75.1317 44.3995 75.3661 44.6339C75.6005 44.8683 75.9185 45 76.25 45C76.5815 45 76.8995 44.8683 77.1339 44.6339C77.3683 44.3995 77.5 44.0815 77.5 43.75V3.75C77.5 3.41848 77.3683 3.10054 77.1339 2.86612C76.8995 2.6317 76.5815 2.5 76.25 2.5ZM75 22.5H70V15H75V22.5ZM75 12.5H62.5V5H75V12.5Z" fill="#DD5900"/>
<path d="M25 3.75C25 4.08152 24.8683 4.39946 24.6339 4.63388C24.3995 4.8683 24.0815 5 23.75 5H17.5V9.9375C17.5 10.269 17.3683 10.587 17.1339 10.8214C16.8995 11.0558 16.5815 11.1875 16.25 11.1875C15.9185 11.1875 15.6005 11.0558 15.3661 10.8214C15.1317 10.587 15 10.269 15 9.9375V5H5V12.5H13.85C14.1815 12.5 14.4995 12.6317 14.7339 12.8661C14.9683 13.1005 15.1 13.4185 15.1 13.75C15.1 14.0815 14.9683 14.3995 14.7339 14.6339C14.4995 14.8683 14.1815 15 13.85 15H12.5V20.175C12.5 20.5065 12.3683 20.8245 12.1339 21.0589C11.8995 21.2933 11.5815 21.425 11.25 21.425C10.9185 21.425 10.6005 21.2933 10.3661 21.0589C10.1317 20.8245 10 20.5065 10 20.175V15H5V22.5H10C10.3315 22.5 10.6495 22.6317 10.8839 22.8661C11.1183 23.1005 11.25 23.4185 11.25 23.75C11.25 24.0815 11.1183 24.3995 10.8839 24.6339C10.6495 24.8683 10.3315 25 10 25H5V32.5H12.5C12.8315 32.5 13.1495 32.6317 13.3839 32.8661C13.6183 33.1005 13.75 33.4185 13.75 33.75C13.75 34.0815 13.6183 34.3995 13.3839 34.6339C13.1495 34.8683 12.8315 35 12.5 35H5V42.5H15V38.75C15 38.4185 15.1317 38.1005 15.3661 37.8661C15.6005 37.6317 15.9185 37.5 16.25 37.5C16.5815 37.5 16.8995 37.6317 17.1339 37.8661C17.3683 38.1005 17.5 38.4185 17.5 38.75V42.5H18.75C19.0815 42.5 19.3995 42.6317 19.6339 42.8661C19.8683 43.1005 20 43.4185 20 43.75C20 44.0815 19.8683 44.3995 19.6339 44.6339C19.3995 44.8683 19.0815 45 18.75 45H3.75C3.41848 45 3.10054 44.8683 2.86612 44.6339C2.6317 44.3995 2.5 44.0815 2.5 43.75V3.75C2.5 3.41848 2.6317 3.10054 2.86612 2.86612C3.10054 2.6317 3.41848 2.5 3.75 2.5H23.75C24.0815 2.5 24.3995 2.6317 24.6339 2.86612C24.8683 3.10054 25 3.41848 25 3.75Z" fill="#DD5900"/>
</svg>
