<svg width="92" height="70" viewBox="0 0 92 70" fill="none" xmlns="http://www.w3.org/2000/svg">
<path d="M84.3333 0H7.66667C3.43403 0 0 3.35938 0 7.5V62.5C0 66.6406 3.43403 70 7.66667 70H84.3333C88.566 70 92 66.6406 92 62.5V7.5C92 3.35938 88.566 0 84.3333 0ZM28.1111 15C33.7493 15 38.3333 19.4844 38.3333 25C38.3333 30.5156 33.7493 35 28.1111 35C22.4729 35 17.8889 30.5156 17.8889 25C17.8889 19.4844 22.4729 15 28.1111 15ZM46 52C46 53.6562 44.4028 55 42.4222 55H13.8C11.8194 55 10.2222 53.6562 10.2222 52V49C10.2222 44.0312 15.0299 40 20.9556 40H21.7542C23.7188 40.7969 25.859 41.25 28.1111 41.25C30.3632 41.25 32.5194 40.7969 34.4681 40H35.2667C41.1924 40 46 44.0312 46 49V52ZM81.7778 43.75C81.7778 44.4375 81.2028 45 80.5 45H57.5C56.7972 45 56.2222 44.4375 56.2222 43.75V41.25C56.2222 40.5625 56.7972 40 57.5 40H80.5C81.2028 40 81.7778 40.5625 81.7778 41.25V43.75ZM81.7778 33.75C81.7778 34.4375 81.2028 35 80.5 35H57.5C56.7972 35 56.2222 34.4375 56.2222 33.75V31.25C56.2222 30.5625 56.7972 30 57.5 30H80.5C81.2028 30 81.7778 30.5625 81.7778 31.25V33.75ZM81.7778 23.75C81.7778 24.4375 81.2028 25 80.5 25H57.5C56.7972 25 56.2222 24.4375 56.2222 23.75V21.25C56.2222 20.5625 56.7972 20 57.5 20H80.5C81.2028 20 81.7778 20.5625 81.7778 21.25V23.75Z" fill="#DD5900"/>
</svg>
