<svg width="80" height="80" viewBox="0 0 80 80" fill="none" xmlns="http://www.w3.org/2000/svg">
<path d="M62.8571 25V20C62.8571 8.97187 52.6034 0 40 0C27.3964 0 17.1429 8.97187 17.1429 20V25H0V67.5C0 74.4036 6.39589 80 14.2857 80H65.7143C73.6041 80 80 74.4036 80 67.5V25H62.8571ZM28.5714 20C28.5714 14.4859 33.6982 10 40 10C46.3018 10 51.4286 14.4859 51.4286 20V25H28.5714V20ZM57.1429 38.75C54.7759 38.75 52.8571 37.0711 52.8571 35C52.8571 32.9289 54.7759 31.25 57.1429 31.25C59.5098 31.25 61.4286 32.9289 61.4286 35C61.4286 37.0711 59.5098 38.75 57.1429 38.75ZM22.8571 38.75C20.4902 38.75 18.5714 37.0711 18.5714 35C18.5714 32.9289 20.4902 31.25 22.8571 31.25C25.2241 31.25 27.1429 32.9289 27.1429 35C27.1429 37.0711 25.2241 38.75 22.8571 38.75Z" fill="#DD5900"/>
</svg>
