<svg width="80" height="80" viewBox="0 0 80 80" fill="none" xmlns="http://www.w3.org/2000/svg">
<path d="M65 41.57V38.3662L66.0775 37.9625C71.415 35.9613 75 30.7875 75 25.0875V18.75C76.3788 18.75 77.5 17.6287 77.5 16.25V13.75C77.5 12.3713 76.3788 11.25 75 11.25H74.9263C74.3013 5.63375 69.53 1.25 63.75 1.25H53.75C47.97 1.25 43.1975 5.63375 42.5737 11.25H42.5C41.1213 11.25 40 12.3713 40 13.75V16.25C40 17.6287 41.1213 18.75 42.5 18.75H45V20.8713L43.1413 23.6575C42.7213 24.2888 42.5 25.0225 42.5 25.7787C42.5 27.3162 43.355 28.6987 44.7313 29.3888L45 29.5225V32.5C45 35.9463 47.8037 38.75 51.25 38.75H55V41.405L53.5275 41.6012C46.4287 42.5487 40.4688 47.175 37.7612 53.75H31.25V37.5H38.75V27.5H21.25V31.25H18.75V27.5H11.25V20H18.75V7.5H1.25V20H8.75V27.5H1.25V37.5H18.75V33.75H21.25V37.5H28.75V53.75H23.75V43.75H17.5C14.0538 43.75 11.25 46.5537 11.25 50V72.5C11.25 75.9463 14.0538 78.75 17.5 78.75H53.75V73.75H65.5025C72.8075 73.75 78.75 67.8063 78.75 60.5013C78.75 51.87 73.1425 44.22 65 41.57ZM3.75 10H16.25V17.5H3.75V10ZM16.25 35H3.75V30H16.25V35ZM23.75 30H36.25V35H23.75V30ZM72.5 25.0875C72.5 29.75 69.5663 33.9837 65.2 35.6213L65 35.6963V33.125L67.8337 31C69.19 29.9812 70 28.3612 70 26.6663C70 23.82 67.7925 21.48 65 21.2663V18.75H72.5V25.0875ZM53.75 3.75H63.75C68.1488 3.75 71.79 7.0175 72.4 11.25H45.1C45.71 7.0175 49.3512 3.75 53.75 3.75ZM42.5 13.75H75V16.25H42.5V13.75ZM51.25 36.25C49.1825 36.25 47.5 34.5675 47.5 32.5V27.9775L45.85 27.1525C45.325 26.89 45 26.3637 45 25.7787C45 25.5162 45.0775 25.2625 45.2212 25.045L47.5 21.6287V18.75H62.5V23.75H64.5837C66.1912 23.75 67.5 25.0588 67.5 26.6663C67.5 27.5788 67.0638 28.4525 66.3325 29L62.5 31.875V42.5C62.5 43.8787 61.3787 45 60 45C58.6213 45 57.5 43.8787 57.5 42.5V36.25H51.25ZM17.5 46.25H21.25V53.75H17.5C15.4325 53.75 13.75 52.0675 13.75 50C13.75 47.9325 15.4325 46.25 17.5 46.25ZM51.25 76.25H17.5C15.4325 76.25 13.75 74.5675 13.75 72.5V54.9675C14.7975 55.7612 16.0875 56.25 17.5 56.25H51.25V61.25C48.4925 61.25 46.25 63.4925 46.25 66.25V68.75C46.25 71.5075 48.4925 73.75 51.25 73.75V76.25ZM56.25 71.25H51.25C49.8713 71.25 48.75 70.1288 48.75 68.75V66.25C48.75 64.8713 49.8713 63.75 51.25 63.75H53.4463C54.1138 63.75 54.7413 64.01 55.215 64.4825L56.25 65.5175V71.25ZM65.5025 71.25H58.75V66.25H63.5988C65.6413 66.25 67.5625 65.4538 69.0088 64.0088C70.4538 62.565 71.25 60.6438 71.25 58.5988V55H68.75V58.5988C68.75 59.9763 68.2138 61.2687 67.2412 62.2412C66.2812 63.2 64.9538 63.75 63.5988 63.75H58.0175L56.9825 62.715C56.11 61.8425 54.97 61.3537 53.75 61.28V53.75H40.4975C43.03 48.5088 47.9988 44.8613 53.8588 44.08L55.2238 43.8988C55.8325 45.9725 57.7313 47.5 60 47.5C62.1888 47.5 64.0325 46.0775 64.7087 44.1162C71.5662 46.5737 76.25 53.1275 76.25 60.5013C76.25 66.4287 71.4287 71.25 65.5025 71.25Z" fill="#DD5900"/>
<path d="M6.25 12.5H13.75V15H6.25V12.5Z" fill="#DD5900"/>
<path d="M61.25 52.5H66.25V55H61.25V52.5Z" fill="#DD5900"/>
</svg>
