<svg width="72" height="76" viewBox="0 0 72 76" fill="none" xmlns="http://www.w3.org/2000/svg">
<path d="M36 0.21875C16.1129 0.21875 0 17.1289 0 38C0 58.8711 16.1129 75.7812 36 75.7812C55.8871 75.7812 72 58.8711 72 38C72 17.1289 55.8871 0.21875 36 0.21875ZM36 14.8438C43.0548 14.8438 48.7742 20.8461 48.7742 28.25C48.7742 35.6539 43.0548 41.6562 36 41.6562C28.9452 41.6562 23.2258 35.6539 23.2258 28.25C23.2258 20.8461 28.9452 14.8438 36 14.8438ZM36 67.25C27.479 67.25 19.8435 63.1977 14.7339 56.8602C17.4629 51.4672 22.8048 47.75 29.0323 47.75C29.3806 47.75 29.729 47.8109 30.0629 47.9176C31.95 48.5574 33.9242 48.9688 36 48.9688C38.0758 48.9688 40.0645 48.5574 41.9371 47.9176C42.271 47.8109 42.6194 47.75 42.9677 47.75C49.1952 47.75 54.5371 51.4672 57.2661 56.8602C52.1564 63.1977 44.521 67.25 36 67.25Z" fill="black"/>
</svg>
