<svg width="80" height="80" viewBox="0 0 80 80" fill="none" xmlns="http://www.w3.org/2000/svg">
<path d="M72.5 26.25H71.25V1.25H1.25V53.75H6.25V56.25V57.5V72.5C6.25 74.5675 7.9325 76.25 10 76.25C12.0675 76.25 13.75 74.5675 13.75 72.5V70C13.75 69.31 14.31 68.75 15 68.75C15.69 68.75 16.25 69.31 16.25 70V75C16.25 77.0675 17.9325 78.75 20 78.75H52.5C54.5675 78.75 56.25 77.0675 56.25 75C56.25 72.9325 54.5675 71.25 52.5 71.25H47.5C46.81 71.25 46.25 70.69 46.25 70V65.6525V65V60.6525V58.75V56.25H50C52.0337 56.25 53.8262 55.2588 54.9675 53.75H71.25V38.75H72.5C75.9463 38.75 78.75 35.9463 78.75 32.5C78.75 29.0537 75.9463 26.25 72.5 26.25ZM63.75 26.25V23.75H68.75V26.25H63.75ZM58.75 26.25V28.75H55C54.5725 28.75 54.1538 28.7937 53.75 28.8762V23.75H61.25V26.25H58.75ZM41.25 38.81V33.75H48.8763C48.7938 34.1538 48.75 34.5725 48.75 35V48.75H46.25V44.3475C46.25 41.465 44.0525 39.1125 41.25 38.81ZM68.75 21.25H61.25V13.75H68.75V21.25ZM33.75 31.25V23.75H41.25V31.25H33.75ZM31.25 21.25V13.75H38.75V21.25H31.25ZM28.75 21.25H21.25V13.75H28.75V21.25ZM18.75 21.25H11.25V13.75H18.75V21.25ZM21.25 23.75V31.25H13.75V23.75H21.25ZM23.75 23.75H31.25V31.25H23.75V23.75ZM41.25 21.25V13.75H48.75V21.25H41.25ZM51.25 21.25V13.75H58.75V21.25H51.25ZM53.75 11.25V3.75H61.25V11.25H53.75ZM51.25 11.25H43.75V3.75H51.25V11.25ZM41.25 11.25H33.75V3.75H41.25V11.25ZM31.25 11.25H23.75V3.75H31.25V11.25ZM21.25 11.25H13.75V3.75H21.25V11.25ZM8.75 21.25H3.75V13.75H8.75V21.25ZM11.25 23.75V31.25H3.75V23.75H11.25ZM8.75 33.75V41.25H3.75V33.75H8.75ZM11.25 33.75H18.75V41.25H11.25V33.75ZM21.25 33.75H28.75V41.25H21.25V33.75ZM31.685 41.25H31.25V33.75H38.75V39.0762L31.685 41.25ZM50.0325 31.25H43.75V23.75H51.25V30.0325C50.7887 30.3812 50.3813 30.7887 50.0325 31.25ZM68.75 11.25H63.75V3.75H68.75V11.25ZM11.25 3.75V11.25H3.75V3.75H11.25ZM3.75 43.75H23.56L9.52125 48.07C7.97875 48.545 6.84625 49.7575 6.43125 51.25H3.75V43.75ZM40.6525 68.75C40.3438 68.75 40.0375 68.7038 39.7412 68.6137L10.2563 59.54C9.355 59.2625 8.75 58.4425 8.75 57.5V56.6087C8.995 56.735 9.25 56.8462 9.52125 56.93L39.0088 66.0038C39.5438 66.1675 40.0962 66.25 40.6525 66.25C41.7975 66.25 42.8613 65.9013 43.75 65.3088V65.6525C43.75 67.3613 42.3612 68.75 40.6525 68.75ZM47.5 73.75H52.5C53.19 73.75 53.75 74.31 53.75 75C53.75 75.69 53.19 76.25 52.5 76.25H20C19.31 76.25 18.75 75.69 18.75 75V70C18.75 67.9325 17.0675 66.25 15 66.25C12.9325 66.25 11.25 67.9325 11.25 70V72.5C11.25 73.19 10.69 73.75 10 73.75C9.31 73.75 8.75 73.19 8.75 72.5V61.6087C8.995 61.735 9.25 61.8462 9.52125 61.93L39.0088 71.0038C39.5438 71.1675 40.0962 71.25 40.6525 71.25C41.81 71.25 42.8862 70.8975 43.7787 70.2925C43.9325 72.2225 45.5325 73.75 47.5 73.75ZM43.75 58.75V60.6525C43.75 62.3612 42.3612 63.75 40.6525 63.75C40.3438 63.75 40.0375 63.7037 39.7412 63.6137L10.2563 54.54C9.355 54.2625 8.75 53.4425 8.75 52.5C8.75 51.5575 9.355 50.7375 10.2563 50.46L39.7412 41.3863C40.0375 41.2963 40.3438 41.25 40.6525 41.25C42.3612 41.25 43.75 42.6388 43.75 44.3475V48.75H40C38.8975 48.75 37.855 49.2337 37.14 50.0775C36.4263 50.9188 36.1213 52.03 36.3025 53.1275C36.595 54.9075 38.2463 56.25 40.1413 56.25H43.75V58.75ZM53.75 50C53.75 52.0675 52.0675 53.75 50 53.75H40.1413C39.4662 53.75 38.8638 53.2975 38.7675 52.72C38.705 52.3425 38.8037 51.9787 39.0462 51.6937C39.2863 51.4113 39.6325 51.25 40 51.25H48.75C50.1287 51.25 51.25 50.1287 51.25 48.75V35C51.25 32.9325 52.9325 31.25 55 31.25H58.75V33.75H56.25C54.8713 33.75 53.75 34.8713 53.75 36.25V50ZM56.1237 51.25C56.2062 50.8462 56.25 50.4275 56.25 50V43.75H68.75V51.25H56.1237ZM68.75 41.25H56.25V36.25H58.75V38.75H68.75V41.25ZM72.5 36.25H61.25V28.75H72.5C74.5675 28.75 76.25 30.4325 76.25 32.5C76.25 34.5675 74.5675 36.25 72.5 36.25Z" fill="#DD5900"/>
</svg>
