<svg width="80" height="64" viewBox="0 0 80 64" fill="none" xmlns="http://www.w3.org/2000/svg">
<path d="M0 18.2501V15.7501C0 13.679 1.67891 12.0001 3.75 12.0001H60V4.50008C60 1.16148 64.0467 -0.506485 66.4017 1.84836L78.9017 14.3484C80.3661 15.8129 80.3661 18.1873 78.9017 19.6516L66.4017 32.1516C64.0556 34.4973 60 32.8526 60 29.5001V22.0001H3.75C1.67891 22.0001 0 20.3212 0 18.2501ZM76.25 42.0001H20V34.5001C20 31.1698 15.9591 29.4876 13.5983 31.8484L1.09828 44.3484C-0.366094 45.8129 -0.366094 48.1873 1.09828 49.6516L13.5983 62.1516C15.9464 64.4996 20 62.8496 20 59.5001V52.0001H76.25C78.3211 52.0001 80 50.3212 80 48.2501V45.7501C80 43.679 78.3211 42.0001 76.25 42.0001Z" fill="#DD5900"/>
</svg>
