<svg width="80" height="80" viewBox="0 0 80 80" fill="none" xmlns="http://www.w3.org/2000/svg">
<path d="M77.8571 25H2.14286C0.959464 25 0 24.1605 0 23.125V17.5C0 13.3578 3.8375 10 8.57143 10H17.1429V1.875C17.1429 0.839531 18.1023 0 19.2857 0H26.4286C27.612 0 28.5714 0.839531 28.5714 1.875V10H51.4286V1.875C51.4286 0.839531 52.388 0 53.5714 0H60.7143C61.8977 0 62.8571 0.839531 62.8571 1.875V10H71.4286C76.1625 10 80 13.3578 80 17.5V23.125C80 24.1605 79.0405 25 77.8571 25ZM2.14286 30H77.8571C79.0405 30 80 30.8395 80 31.875V72.5C80 76.6422 76.1625 80 71.4286 80H8.57143C3.8375 80 0 76.6422 0 72.5V31.875C0 30.8395 0.959464 30 2.14286 30ZM61.66 44.9917L56.6298 40.5545C55.7964 39.8194 54.4396 39.8145 53.5995 40.5439L34.6643 56.9789L26.4536 49.7364C25.6202 49.0012 24.2632 48.9964 23.423 49.7258L18.3521 54.1273C17.512 54.8566 17.5064 56.0438 18.34 56.7789L33.0902 69.7897C33.9236 70.5248 35.2804 70.5297 36.1205 69.8003L61.6479 47.6433C62.488 46.9141 62.4936 45.7269 61.66 44.9917Z" fill="#DD5900"/>
</svg>
