<svg width="80" height="80" viewBox="0 0 80 80" fill="none" xmlns="http://www.w3.org/2000/svg">
<g clip-path="url(#clip0)">
<path d="M73.816 63.8747H6.18393C5.53548 63.8747 5.00977 64.4003 5.00977 65.0489V75.0685C5.00977 75.7171 5.53548 76.2426 6.18393 76.2426H73.816C74.4645 76.2426 74.9902 75.7171 74.9902 75.0685V65.0489C74.9902 64.4003 74.4645 63.8747 73.816 63.8747ZM7.3581 66.2231H27.5538V73.8943H7.3581V66.2231ZM29.9021 66.2231H50.0978V73.8943H29.9021V66.2231ZM72.6419 73.8943H52.4462V66.2231H72.6419V73.8943Z" fill="#DD5900"/>
<path d="M6.18393 33.816C5.53548 33.816 5.00977 34.3416 5.00977 34.9902V45.0098C5.00977 45.6584 5.53548 46.1839 6.18393 46.1839H73.816C74.4645 46.1839 74.9902 45.6584 74.9902 45.0098V34.9902C74.9902 34.3416 74.4645 33.816 73.816 33.816H70.0247C69.3763 33.816 68.8505 34.3416 68.8505 34.9902C68.8505 35.6388 69.3763 36.1644 70.0247 36.1644H72.6419V43.8356H52.4462V36.1644H64.552C65.2004 36.1644 65.7262 35.6388 65.7262 34.9902C65.7262 34.3416 65.2004 33.816 64.552 33.816H6.18393ZM7.3581 36.1644H27.5538V43.8356H7.3581V36.1644ZM29.9021 36.1644H50.0978V43.8356H29.9021V36.1644Z" fill="#DD5900"/>
<path d="M6.18393 16.1252H28.728C29.3764 16.1252 29.9021 15.5997 29.9021 14.9511V4.93151C29.9021 4.2829 29.3764 3.75734 28.728 3.75734H6.18393C5.53548 3.75734 5.00977 4.2829 5.00977 4.93151V14.9511C5.00977 15.5997 5.53548 16.1252 6.18393 16.1252ZM7.3581 6.10568H27.5538V13.7769H7.3581V6.10568Z" fill="#DD5900"/>
<path d="M78.8258 58.865H63.7182V51.1937H78.8258C79.4743 51.1937 80 50.6682 80 50.0196C80 49.371 79.4743 48.8454 78.8258 48.8454H1.17417C0.525714 48.8454 0 49.371 0 50.0196C0 50.6682 0.525714 51.1937 1.17417 51.1937H16.2818V58.865H1.17417C0.525714 58.865 0 59.3905 0 60.0391C0 60.6877 0.525714 61.2133 1.17417 61.2133H78.8258C79.4743 61.2133 80 60.6877 80 60.0391C80 59.3905 79.4743 58.865 78.8258 58.865ZM18.6301 51.1937H38.8258V58.865H18.6301V51.1937ZM41.1742 51.1937H61.3699V58.865H41.1742V51.1937Z" fill="#DD5900"/>
<path d="M1.17417 28.8063C0.525714 28.8063 0 29.3318 0 29.9804C0 30.629 0.525714 31.1546 1.17417 31.1546H62.544C63.1925 31.1546 63.7182 30.629 63.7182 29.9804V19.9609C63.7182 19.3123 63.1925 18.7867 62.544 18.7867H1.17417C0.525714 18.7867 0 19.3123 0 19.9609C0 20.6095 0.525714 21.135 1.17417 21.135H16.2818V28.8063H1.17417ZM61.3699 28.8063H41.1742V21.135H61.3699V28.8063ZM38.8258 28.8063H18.6301V21.135H38.8258V28.8063Z" fill="#DD5900"/>
</g>
<defs>
<clipPath id="clip0">
<rect width="80" height="80" fill="white"/>
</clipPath>
</defs>
</svg>
