<svg width="42" height="42" viewBox="0 0 42 42" fill="none" xmlns="http://www.w3.org/2000/svg">
<path d="M20.5896 10.7369C14.7456 10.7369 10.0319 15.3709 10.0319 21.116C10.0319 26.8611 14.7456 31.4952 20.5896 31.4952C26.4335 31.4952 31.1473 26.8611 31.1473 21.116C31.1473 15.3709 26.4335 10.7369 20.5896 10.7369ZM20.5896 27.8638C16.8131 27.8638 13.7257 24.8377 13.7257 21.116C13.7257 17.3943 16.8039 14.3682 20.5896 14.3682C24.3753 14.3682 27.4535 17.3943 27.4535 21.116C27.4535 24.8377 24.3661 27.8638 20.5896 27.8638ZM34.0417 10.3123C34.0417 11.6583 32.9391 12.7332 31.5792 12.7332C30.2101 12.7332 29.1166 11.6492 29.1166 10.3123C29.1166 8.9754 30.2192 7.89142 31.5792 7.89142C32.9391 7.89142 34.0417 8.9754 34.0417 10.3123ZM41.0342 12.7693C40.878 9.52643 40.1246 6.65387 37.708 4.28717C35.3005 1.92047 32.3786 1.17975 29.0799 1.01715C25.6801 0.827454 15.4899 0.827454 12.0901 1.01715C8.8006 1.17072 5.87863 1.91144 3.46202 4.27814C1.04542 6.64484 0.301143 9.5174 0.135748 12.7603C-0.0572123 16.1026 -0.0572123 26.1204 0.135748 29.4627C0.291955 32.7056 1.04542 35.5782 3.46202 37.9449C5.87863 40.3116 8.79141 41.0523 12.0901 41.2149C15.4899 41.4046 25.6801 41.4046 29.0799 41.2149C32.3786 41.0613 35.3005 40.3206 37.708 37.9449C40.1154 35.5782 40.8688 32.7056 41.0342 29.4627C41.2272 26.1204 41.2272 16.1116 41.0342 12.7693ZM36.6421 33.0489C35.9254 34.8194 34.5379 36.1834 32.7277 36.897C30.0171 37.9539 23.5851 37.71 20.5896 37.71C17.5941 37.71 11.1529 37.9449 8.45144 36.897C6.65047 36.1924 5.26299 34.8284 4.53709 33.0489C3.46202 30.3841 3.71012 24.0609 3.71012 21.116C3.71012 18.1712 3.47121 11.8389 4.53709 9.18317C5.2538 7.41266 6.64128 6.04864 8.45144 5.33502C11.1621 4.27814 17.5941 4.52203 20.5896 4.52203C23.5851 4.52203 30.0263 4.28717 32.7277 5.33502C34.5287 6.03961 35.9162 7.40363 36.6421 9.18317C37.7171 11.848 37.4691 18.1712 37.4691 21.116C37.4691 24.0609 37.7171 30.3931 36.6421 33.0489Z" fill="white"/>
</svg>
