<svg width="27" height="38" viewBox="0 0 27 38" fill="none" xmlns="http://www.w3.org/2000/svg">
<path d="M12.1126 36.7233C1.89633 21.3041 0 19.7216 0 14.0548C0 6.29252 6.04413 0 13.5 0C20.9559 0 27 6.29252 27 14.0548C27 19.7216 25.1037 21.3041 14.8874 36.7233C14.217 37.7316 12.783 37.7315 12.1126 36.7233ZM13.5 19.911C16.6066 19.911 19.125 17.2891 19.125 14.0548C19.125 10.8205 16.6066 8.19863 13.5 8.19863C10.3934 8.19863 7.875 10.8205 7.875 14.0548C7.875 17.2891 10.3934 19.911 13.5 19.911Z" fill="white"/>
</svg>
