<svg width="40" height="38" viewBox="0 0 40 38" fill="none" xmlns="http://www.w3.org/2000/svg">
<path d="M38.0729 26.4843L29.6874 22.9706C29.3292 22.8214 28.9311 22.7899 28.553 22.881C28.1749 22.9721 27.8374 23.1808 27.5911 23.4757L23.8775 27.9118C18.0495 25.2251 13.3592 20.6393 10.6114 14.9411L15.1485 11.3103C15.4507 11.0699 15.6646 10.7399 15.7578 10.37C15.8511 10.0002 15.8185 9.61074 15.6651 9.26062L12.0713 1.06199C11.903 0.684563 11.6052 0.376409 11.2293 0.190661C10.8534 0.00491346 10.4231 -0.046786 10.0124 0.0444778L2.22595 1.80133C1.83002 1.89072 1.47676 2.10869 1.22385 2.41965C0.970929 2.73062 0.833283 3.11622 0.833374 3.51352C0.833374 22.2899 16.3988 37.4793 35.573 37.4793C35.9794 37.4795 36.374 37.345 36.6922 37.0977C37.0104 36.8504 37.2334 36.505 37.3249 36.1177L39.1218 28.5047C39.2145 28.1012 39.1605 27.6788 38.9691 27.31C38.7776 26.9413 38.4607 26.6493 38.0729 26.4843Z" fill="white"/>
</svg>
